inDegrees=no
num_controls=7
num_derivatives=13
num_iterations=90
num_multipliers=7
num_parameters=0
num_slacks=7
num_states=26
objective=0.435272
objective_accelerations=0.026400
objective_balance=0.001944
objective_effort=0.014175
objective_height=0.386801
objective_ligament=0.005952
solver_duration=1531.001019
status=Solve_Succeeded
success=true
DataType=double
version=3
OpenSimVersion=4.5
endheader
time	/jointset/ground_pelvis/pelvis_tilt/value	/jointset/ground_pelvis/pelvis_tx/value	/jointset/ground_pelvis/pelvis_ty/value	/jointset/hip_l/hip_flexion_l/value	/jointset/hip_l/hip_adduction_l/value	/jointset/hip_l/hip_rotation_l/value	/jointset/back/lumbar_extension/value	/jointset/patellofemoral_l/patellar_flexion_l/value	/jointset/knee_l/knee_flexion_l/value	/jointset/knee_l/knee_adduction_l/value	/jointset/knee_l/knee_rotation_l/value	/jointset/ankle_l/ankle_angle_l/value	/jointset/subtalar_l/subtalar_angle_l/value	/jointset/ground_pelvis/pelvis_tilt/speed	/jointset/ground_pelvis/pelvis_tx/speed	/jointset/ground_pelvis/pelvis_ty/speed	/jointset/hip_l/hip_flexion_l/speed	/jointset/hip_l/hip_adduction_l/speed	/jointset/hip_l/hip_rotation_l/speed	/jointset/back/lumbar_extension/speed	/jointset/patellofemoral_l/patellar_flexion_l/speed	/jointset/knee_l/knee_flexion_l/speed	/jointset/knee_l/knee_adduction_l/speed	/jointset/knee_l/knee_rotation_l/speed	/jointset/ankle_l/ankle_angle_l/speed	/jointset/subtalar_l/subtalar_angle_l/speed	/forceset/tau_hip_flexion_l	/forceset/tau_hip_adduction_l	/forceset/tau_hip_rotation_l	/forceset/tau_knee_flexion_l	/forceset/tau_ankle_angle_l	/forceset/tau_subtalar_angle_l	/forceset/tau_lumbar_extension	lambda_cid13_p0	lambda_cid13_p1	lambda_cid13_p2	lambda_cid13_p3	lambda_cid13_p4	lambda_cid13_p5	lambda_cid14_p0	/jointset/ground_pelvis/pelvis_tilt/accel	/jointset/ground_pelvis/pelvis_tx/accel	/jointset/ground_pelvis/pelvis_ty/accel	/jointset/hip_l/hip_flexion_l/accel	/jointset/hip_l/hip_adduction_l/accel	/jointset/hip_l/hip_rotation_l/accel	/jointset/back/lumbar_extension/accel	/jointset/patellofemoral_l/patellar_flexion_l/accel	/jointset/knee_l/knee_flexion_l/accel	/jointset/knee_l/knee_adduction_l/accel	/jointset/knee_l/knee_rotation_l/accel	/jointset/ankle_l/ankle_angle_l/accel	/jointset/subtalar_l/subtalar_angle_l/accel	gamma_cid13_p0	gamma_cid13_p1	gamma_cid13_p2	gamma_cid13_p3	gamma_cid13_p4	gamma_cid13_p5	gamma_cid14_p0
1.5	-0.08595298764886403	0.1127266372351404	0.8484563932092529	0.5341301427864489	-0.3584223077760008	-0.113690230568977	-0.2422728565122037	0.6460210205516339	0.6460210205516553	-0.05042365204690093	-0.1680378760481194	0.3047954354650842	0.1682848993508268	-0.139440791288424	0.1679590235949012	0.2525497632377635	-1.084028582512298	0.1008060745432513	-0.5048462891939388	0.5681729635752558	-1.689055519584798	-1.689055519584769	-0.09278393664308308	0.06141186054386858	-0.57683244246948	-0.1066023633916585	-0.01744078347316858	0.02415754477771849	0.004263283684591092	-0.1814278737548918	-0.02940692224390586	0.006226621789317401	0.04996740586768375	-34.63833446815917	2.259526895581834	0.6165634138778139	5.823971176800523	-444.3424574893825	-67.66419958182593	-17.08221510814611	-0.09438319172800526	-0.06882614646177965	-0.4151681074830727	-0.1753857919887245	0.3452653650111186	-0.0003153587013636897	0.2455453102021993	-1.179711951196364	-1.17971195119643	-0.1987169444436667	0.3749324907949256	-0.8917533483836804	0.1751045459888806	-1.117524217355284e-07	1.358096170666333e-06	-6.322589417740192e-08	2.06894551667945e-07	-1.775860214711799e-08	7.736644066769214e-07	6.653543160688389e-08
1.51	-0.08735207586595661	0.1144025928057149	0.8509605593469208	0.5232825645608969	-0.3573973777457199	-0.118739552532313	-0.236579411828739	0.629073763987255	0.6290737639872912	-0.05136112289225617	-0.1674066612245031	0.2989833618949169	0.1672274275230065	-0.1403595842079209	0.1672107776154642	0.2482315122975519	-1.085351682105775	0.1041622523949797	-0.5049562271779053	0.5704385666793238	-1.700171076466046	-1.700171076466014	-0.09471200608667392	0.06482221038285711	-0.5854941758277137	-0.104883616544933	-0.01666826633962498	0.0235161270157563	0.004473863512732689	-0.1769801206826906	-0.03037633626738419	0.005286825767661169	0.04878541836445185	-34.92584737861426	2.557662414215142	0.7522012607859703	5.97102511727554	-442.9119281624841	-67.09846039840096	-17.70797377817149	-0.08804805680299491	-0.08098078220848288	-0.4479545865017626	-0.0904794103473579	0.3280141704682378	-0.006980114926817428	0.2054568446588179	-1.0437820131834	-1.043782013183012	-0.1899274407878396	0.3227744822509516	-0.8401395323910792	0.1713206416114499	-1.156327157134268e-07	1.311156661178554e-06	-3.68538937086756e-08	2.022680338353169e-07	-3.309615372167703e-08	7.169535413897756e-07	6.215676524933617e-08
1.52	-0.08875983615520083	0.1160704345247902	0.8534199827753443	0.5124258138659394	-0.35633944190188	-0.1237881032948235	-0.2308656333074059	0.6120220909627501	0.6120220909627933	-0.05231788953134645	-0.1667416052521343	0.2930873197505972	0.1661873553411729	-0.1411752057171003	0.1663362532950655	0.2436012213888687	-1.085863076392055	0.1074072372552883	-0.5046920490291729	0.5722397311493871	-1.709938811611074	-1.709938811611041	-0.09664309538910448	0.06818009029385348	-0.5936261572998625	-0.1031224341943238	-0.01589574920609183	0.0228747092538075	0.004684443340852796	-0.1725323676104915	-0.03134575029085953	0.004347029746024769	0.04760343086120545	-35.21855501704944	2.854840615582674	0.8901243720674036	6.129825159712204	-441.5681874298386	-66.5641398190277	-18.32085630260285	-0.07374890966459381	-0.09408181465402869	-0.4775761011773713	-0.01304473054951507	0.3230267667271569	0.07450786783843547	0.1526575834012111	-0.9101476039526503	-0.9101476039526477	-0.1993209162116604	0.3644385051964905	-0.7858029711665567	0.1835916467656036	-1.257613099352504e-07	1.263184248432216e-06	4.366896413224005e-08	1.984573855644916e-07	-5.483592612623485e-08	6.250955966944238e-07	5.081661517568378e-08
1.53	-0.09017529406723403	0.1177288844229575	0.8558315685179955	0.5015682867018443	-0.3552493140969663	-0.1288323919828984	-0.2251361731836866	0.5948798164573581	0.5948798164574196	-0.05329316203872259	-0.1660431104408561	0.2871128462290901	0.1651656070296505	-0.1418958501681289	0.1653313469168417	0.2386680843491004	-1.085495924529222	0.1106141892665535	-0.5041051169443439	0.5735640410585366	-1.718267297338999	-1.718267297339074	-0.09837335331101107	0.07152220427809147	-0.6011636454785533	-0.1011953502580574	-0.01509587894487902	0.02207842277259927	0.004864145345530765	-0.1681015654416468	-0.03222251590429145	0.003480720503339911	0.04640827854085589	-35.47341559453147	3.108373588057844	1.040834527534879	6.248053586195109	-440.2156886733351	-66.14065335091605	-18.91755020727031	-0.06815868204987632	-0.1070131748550092	-0.5083786558664627	0.08354014865039183	0.3187403201047436	0.05990220435094537	0.1090798142046441	-0.7568846479269896	-0.7568846479432737	-0.1539743430590111	0.3196622190734122	-0.7219641555839067	0.2018341811069544	-1.425287231662444e-07	1.21411437597366e-06	1.817271079311062e-07	1.955135987030817e-07	-8.33780581626663e-08	4.958938801278537e-07	3.207988865367025e-08
1.54	-0.09159734571763142	0.1193766216322529	0.8581923836601509	0.4907188200571526	-0.3541272745915851	-0.133868988085013	-0.2193961175369739	0.5776617199765507	0.5776617199766185	-0.0542845563479037	-0.1653110816149237	0.2810661493429225	0.1641640430403008	-0.1424939533882604	0.1641937155206621	0.233447101289725	-1.084250972508361	0.1137895773489549	-0.5031535318376809	0.574358835749006	-1.725103206695506	-1.725103206695691	-0.09986745574806748	0.07488689322377032	-0.6080708302317869	-0.09908556975979731	-0.01429600868376305	0.02128213629142167	0.005043847350162563	-0.1636707632728195	-0.03309928151771444	0.002614411260700324	0.04521312622041046	-35.73476159170548	3.362839687945127	1.191627416282751	6.381577759593742	-438.9663275468827	-65.74203973774082	-19.4945825457377	-0.04924066348528641	-0.1206268182450869	-0.5351453050987712	0.1625153010560376	0.3167139809543987	0.1474384722053103	0.04675453966514254	-0.611632329669076	-0.6116323296691252	-0.1520898192416698	0.3689534974846591	-0.6597422860749886	0.2201309591643491	-1.581572118322298e-07	1.165421272762963e-06	3.112670424999812e-07	1.921947668625053e-07	-1.129783842738954e-07	3.706592281143866e-07	1.463218986065636e-08
1.55	-0.09302559196953221	0.1210123411172255	0.8604995038291904	0.4798872048818936	-0.352973824972646	-0.1388943990257812	-0.2136497215045035	0.5603830418686406	0.5603830418686686	-0.05528992294176627	-0.1645457643771717	0.2749536102148326	0.1631842566694479	-0.1432104895227561	0.1629304861258132	0.2279259628966678	-1.081840844608283	0.1168631724764311	-0.5018665379634064	0.5749287149785811	-1.730363196912875	-1.730363196913182	-0.1012244709141117	0.0781376275221818	-0.6143317059218253	-0.09688459980642308	-0.01346738685085373	0.02045351907211686	0.005185306722749336	-0.1593349877154835	-0.03370427231286146	0.00169886571633222	0.04404973325721221	-35.91347785647572	3.636634017147596	1.325160349427246	6.427977763687251	-437.7483710889153	-65.32149563913975	-20.04838865902473	-0.09115810370364004	-0.1320880300156828	-0.5682757336315853	0.3149199074910922	0.2969032015686144	0.1286409321985952	0.06335624943321316	-0.44279763210037	-0.4427976321186897	-0.1300976580310974	0.2973949530270408	-0.5934506503081278	0.2179182348239036	-1.724734613254879e-07	1.117162273250888e-06	4.309925186082147e-07	1.884438179807153e-07	-1.437979339930435e-07	2.499953243903642e-07	-1.330324809814555e-09
1.56	-0.0944626631858394	0.1226348449022673	0.8627498770888551	0.4690866226602468	-0.3517907952178473	-0.143905077810375	-0.2078973763527693	0.5430598408056899	0.5430598408056827	-0.05630937774584977	-0.1637490874850318	0.2687816242418736	0.1622260476424089	-0.1442589462681123	0.161550575534516	0.2220977194147467	-1.078044381787899	0.1197056045208777	-0.5002071006027277	0.5755486596013445	-1.734007797703428	-1.734007797703857	-0.1026850977899642	0.08115882410090099	-0.619960199205458	-0.09477010099704965	-0.0126387650177697	0.01962490185283578	0.005326766095336736	-0.1549992121581005	-0.03430926310799774	0.0007833201719996404	0.04288634029415565	-36.09979188865212	3.912533128492313	1.457473084469226	6.493414300189392	-436.6500476743925	-64.92118296425579	-20.57541381818564	-0.1156247856575172	-0.1439630575346307	-0.5965663228715685	0.4397822851171074	0.2704813643484755	0.2219271694861955	0.05676761830272863	-0.2885544443060173	-0.2885544443060472	-0.1728121612033932	0.3230459535462038	-0.533265804793702	0.2028367303642028	-1.65962564394428e-07	1.043739520637738e-06	4.077958863011031e-07	1.777210101044689e-07	-1.455606273927193e-07	2.156932292647176e-07	-1.178980837869285e-09
